<?xml version="1.0" encoding="utf-8"?>
<!-- Generator: Adobe Illustrator 26.3.1, SVG Export Plug-In . SVG Version: 6.00 Build 0)  -->
<svg version="1.1" id="Layer_1" xmlns="http://www.w3.org/2000/svg" xmlns:xlink="http://www.w3.org/1999/xlink" x="0px" y="0px"
	 width="16px" height="16px" viewBox="0 0 16 16" style="enable-background:new 0 0 16 16;" xml:space="preserve">
<path d="M8.5,0c0.29,0.04,0.59,0.07,0.88,0.12c3.11,0.52,5.68,2.94,6.4,6.01c1.01,4.28-1.56,8.57-5.84,9.6
	c-3.13,0.75-5.83-0.13-7.99-2.53c-1.16-1.29-1.78-2.84-1.92-4.58C0.02,8.59,0.01,8.54,0,8.5c0-0.33,0-0.67,0-1
	c0.02-0.19,0.04-0.38,0.07-0.57C0.3,5.3,0.95,3.87,2.06,2.65C3.3,1.29,4.82,0.44,6.64,0.12C6.92,0.07,7.21,0.04,7.5,0
	C7.83,0,8.17,0,8.5,0z M8.01,0.8C4.05,0.79,0.82,4,0.8,7.97s3.2,7.2,7.18,7.22c3.96,0.02,7.19-3.2,7.21-7.17
	C15.22,4.05,12,0.82,8.01,0.8z"/>
<path d="M10.19,7.63C9.46,7,8.74,6.36,8.01,5.73C7.7,5.45,7.39,5.18,7.07,4.91C6.93,4.78,6.75,4.77,6.61,4.85
	C6.46,4.93,6.37,5.1,6.41,5.26c0.03,0.11,0.1,0.22,0.19,0.29c0.56,0.5,1.12,0.99,1.68,1.48C8.65,7.35,9.01,7.67,9.39,8
	C8.84,8.48,8.3,8.95,7.77,9.42c-0.4,0.35-0.81,0.7-1.21,1.06c-0.21,0.19-0.2,0.48,0.01,0.63c0.01,0,0.01,0,0.02,0.01
	c0.16,0.12,0.35,0.09,0.55-0.08c1.01-0.89,2.03-1.78,3.05-2.67C10.48,8.12,10.48,7.88,10.19,7.63z"/>
</svg>
