<?xml version="1.0" encoding="utf-8"?>
<!-- Generator: Adobe Illustrator 26.3.1, SVG Export Plug-In . SVG Version: 6.00 Build 0)  -->
<svg version="1.1" id="Layer_1" xmlns="http://www.w3.org/2000/svg" xmlns:xlink="http://www.w3.org/1999/xlink" x="0px" y="0px"
	 width="16px" height="16px" viewBox="0 0 16 16" style="enable-background:new 0 0 16 16;" xml:space="preserve">
<path d="M16,7.5c-0.04-0.29-0.07-0.59-0.12-0.88c-0.52-3.11-2.94-5.68-6.01-6.4C5.59-0.79,1.3,1.78,0.27,6.06
	c-0.75,3.13,0.13,5.83,2.53,7.99c1.29,1.16,2.84,1.78,4.58,1.92c0.05,0,0.09,0.02,0.14,0.03c0.33,0,0.67,0,1,0
	c0.19-0.02,0.38-0.04,0.57-0.07c1.63-0.23,3.06-0.88,4.28-1.99c1.36-1.24,2.21-2.76,2.53-4.58c0.03-0.28,0.06-0.57,0.1-0.86
	C16,8.17,16,7.83,16,7.5z M15.2,7.99c0.01,3.97-3.2,7.2-7.17,7.21c-3.97,0.02-7.2-3.2-7.22-7.18C0.8,4.05,4.01,0.82,7.98,0.8
	C11.95,0.78,15.18,4,15.2,7.99z"/>
<path d="M11.09,8.93c-0.27-0.31-0.55-0.63-0.82-0.94C9.85,7.51,9.43,7.03,9,6.54C8.79,6.3,8.58,6.05,8.37,5.81
	c-0.25-0.29-0.49-0.29-0.74,0C6.74,6.84,5.85,7.85,4.96,8.87c-0.17,0.2-0.2,0.4-0.07,0.56c0.08,0.11,0.19,0.16,0.3,0.16
	c0.12,0,0.23-0.05,0.33-0.15c0.36-0.4,0.71-0.81,1.06-1.21C7.05,7.7,7.52,7.16,8,6.61c0.33,0.38,0.65,0.75,0.98,1.12
	c0.49,0.56,0.98,1.12,1.47,1.68c0.07,0.08,0.18,0.16,0.29,0.19c0.16,0.05,0.33-0.05,0.41-0.19c0.04-0.07,0.05-0.15,0.04-0.24
	C11.18,9.09,11.15,9,11.09,8.93z"/>
</svg>
