<?xml version="1.0" encoding="utf-8"?>
<!-- Generator: Adobe Illustrator 26.3.1, SVG Export Plug-In . SVG Version: 6.00 Build 0)  -->
<svg version="1.1" id="Layer_1" xmlns="http://www.w3.org/2000/svg" xmlns:xlink="http://www.w3.org/1999/xlink" x="0px" y="0px"
	 width="16px" height="16px" viewBox="0 0 16 16" style="enable-background:new 0 0 16 16;" xml:space="preserve">
<style type="text/css">
	.st0{stroke:#000000;stroke-width:0.25;stroke-miterlimit:10;}
</style>
<path d="M0,8.5c0.04,0.29,0.07,0.59,0.12,0.88c0.52,3.11,2.94,5.68,6.01,6.4c4.28,1.01,8.57-1.56,9.6-5.84
	c0.75-3.13-0.13-5.83-2.53-7.99c-1.29-1.16-2.84-1.78-4.58-1.92C8.59,0.02,8.54,0.01,8.5,0c-0.33,0-0.67,0-1,0
	C7.31,0.02,7.11,0.04,6.93,0.07C5.3,0.3,3.87,0.95,2.65,2.06C1.29,3.29,0.44,4.82,0.12,6.64C0.07,6.92,0.04,7.21,0,7.5
	C0,7.83,0,8.17,0,8.5z M0.8,8.01C0.79,4.05,4,0.82,7.97,0.8s7.2,3.2,7.22,7.18c0.02,3.96-3.2,7.19-7.17,7.21
	C4.05,15.22,0.82,12,0.8,8.01z"/>
<path class="st0" d="M11.12,6.59c0-0.01,0-0.01-0.01-0.02c-0.15-0.21-0.44-0.22-0.63-0.01c-0.36,0.4-0.71,0.81-1.06,1.21
	C8.95,8.3,8.48,8.84,8,9.39C7.67,9.01,7.35,8.65,7.03,8.28C6.54,7.72,6.05,7.16,5.55,6.6C5.48,6.51,5.37,6.44,5.26,6.41
	C5.1,6.37,4.93,6.46,4.85,6.61C4.77,6.75,4.78,6.93,4.91,7.07C5.18,7.39,5.45,7.7,5.73,8.01C6.36,8.74,7,9.46,7.63,10.19
	c0.25,0.29,0.49,0.29,0.74,0c0.89-1.02,1.78-2.04,2.67-3.05C11.21,6.94,11.24,6.75,11.12,6.59z"/>
</svg>
