<?xml version="1.0" encoding="utf-8"?>
<!-- Generator: Adobe Illustrator 26.3.1, SVG Export Plug-In . SVG Version: 6.00 Build 0)  -->
<svg version="1.1" id="Layer_1" xmlns="http://www.w3.org/2000/svg" xmlns:xlink="http://www.w3.org/1999/xlink" x="0px" y="0px"
	 width="16px" height="16px" viewBox="0 0 16 16" style="enable-background:new 0 0 16 16;" xml:space="preserve">
<path d="M7.5,0C7.21,0.04,6.91,0.07,6.62,0.12c-3.11,0.52-5.68,2.94-6.4,6.01c-1.01,4.28,1.56,8.57,5.84,9.6
	c3.13,0.75,5.83-0.13,7.99-2.53c1.16-1.29,1.78-2.84,1.92-4.58c0-0.05,0.02-0.09,0.03-0.14c0-0.33,0-0.67,0-1
	c-0.02-0.19-0.04-0.38-0.07-0.57c-0.23-1.63-0.88-3.06-1.99-4.28C12.7,1.27,11.18,0.42,9.36,0.1C9.08,0.07,8.79,0.04,8.5,0
	C8.17,0,7.83,0,7.5,0z M7.99,0.8c3.97-0.01,7.2,3.2,7.21,7.17c0.02,3.97-3.2,7.2-7.18,7.22c-3.96,0.02-7.19-3.2-7.21-7.17
	C0.78,4.05,4,0.82,7.99,0.8z"/>
<path d="M9.44,10.48c-0.4-0.36-0.81-0.71-1.21-1.06C7.7,8.95,7.16,8.48,6.61,8c0.38-0.33,0.75-0.65,1.12-0.98
	C8.28,6.54,8.84,6.05,9.4,5.55c0.08-0.07,0.16-0.18,0.19-0.29c0.04-0.16-0.05-0.33-0.2-0.41C9.25,4.77,9.07,4.79,8.93,4.91
	C8.61,5.18,8.3,5.45,7.99,5.73C7.26,6.36,6.54,7,5.81,7.63c-0.29,0.25-0.29,0.49,0,0.74c1.02,0.89,2.04,1.78,3.05,2.67
	c0.2,0.17,0.39,0.2,0.55,0.08c0.01,0,0.01,0,0.02-0.01C9.64,10.96,9.65,10.67,9.44,10.48z"/>
</svg>
