<svg version="1.1" id="Layer_1" xmlns="http://www.w3.org/2000/svg" x="0" y="0" width="16" height="16" style="enable-background:new 0 0 16 16" xml:space="preserve"><style>.st0{fill:#010101}</style><path class="st0" d="M11.23 0H4.77C3.46 0 2.4 1.06 2.4 2.37v11.26C2.4 14.94 3.46 16 4.77 16h6.46c1.31 0 2.37-1.06 2.37-2.37V2.37C13.6 1.06 12.54 0 11.23 0zM4.77 1.09h6.46c.7 0 1.28.57 1.28 1.28v9.02H3.49V2.37c0-.71.58-1.28 1.28-1.28zm6.46 13.82H4.77c-.7 0-1.28-.57-1.28-1.28v-1.15h9.01v1.15c.01.71-.57 1.28-1.27 1.28z"/><path class="st0" d="M7.85 2.67c.24 0 .44-.2.44-.44s-.2-.44-.44-.44-.44.2-.44.44.2.44.44.44zM7.85 13.16c-.24 0-.44.2-.44.44s.2.44.44.44.44-.2.44-.44-.2-.44-.44-.44z"/></svg>
