<svg xmlns="http://www.w3.org/2000/svg" width="16" height="16" style="enable-background:new 0 0 16 16" xml:space="preserve"><path d="M13.46 3.25c-.96-.9-1.92-1.81-2.88-2.72-.36-.35-.79-.51-1.3-.51-1.85 0-3.71.01-5.56 0C2.71.01 2.03.74 1.94 1.48c0 .01-.01.03-.02.04v12.97c.03.1.05.2.08.3.23.65.67 1.04 1.34 1.17.02 0 .05.02.07.03h9.16c.09-.02.18-.05.27-.07.69-.2 1.21-.85 1.22-1.58.01-.44 0-.88 0-1.33V4.7c.02-.58-.18-1.05-.6-1.45zm-3.31-1.84c.83.79 1.64 1.55 2.48 2.35h-2.29c-.13 0-.19-.06-.19-.19V1.41zm2.99 3.46v9.31c0 .56-.31.87-.87.87H3.71c-.55 0-.86-.32-.86-.86V1.81c0-.54.32-.86.85-.86h5.52V3.5c0 .74.45 1.19 1.18 1.19h2.75c-.01.07-.01.13-.01.18z"/><path d="M4.38 7.18c.06.01.13.01.2.01H11.3c.21 0 .37-.09.46-.29.14-.32-.1-.64-.46-.65H4.49c-.26 0-.46.17-.48.41-.03.24.13.47.37.52zM11.29 8.75H4.5c-.19 0-.34.08-.43.25-.18.32.05.68.44.69h6.77c.21 0 .38-.08.47-.27.16-.33-.08-.67-.46-.67zM6.68 11.25H4.53c-.31 0-.53.19-.52.47 0 .27.21.46.52.46h2.16c.31 0 .53-.19.53-.46-.01-.28-.22-.47-.54-.47z"/></svg>
