<svg xmlns="http://www.w3.org/2000/svg" width="16" height="16" style="enable-background:new 0 0 16 16" xml:space="preserve"><path d="M.78 8V1.39c0-.7.4-1.22 1.04-1.36.12-.03.24-.03.35-.03h10.25c.84 0 1.38.54 1.38 1.39v3.72c0 .44-.35.72-.73.59-.24-.08-.38-.28-.38-.56V1.39c0-.21-.06-.27-.27-.27H2.17c-.22 0-.27.05-.27.3v13.14c0 .29.04.33.33.33h3.51c.38 0 .63.23.62.57-.01.29-.22.52-.51.54H2.19c-.86 0-1.4-.54-1.4-1.4C.78 12.4.78 10.2.78 8z"/><path d="M15.29 11.73c0 2.37-1.92 4.28-4.29 4.27a4.278 4.278 0 0 1-4.27-4.29c.01-2.36 1.93-4.27 4.28-4.26a4.253 4.253 0 0 1 4.28 4.28zm-4.28 3.15c1.75 0 3.16-1.4 3.16-3.15s-1.4-3.17-3.15-3.17a3.17 3.17 0 0 0-3.18 3.16 3.175 3.175 0 0 0 3.17 3.16zM6.73 4.83H4.36c-.32 0-.56-.2-.59-.48-.03-.32.17-.58.49-.63h4.83c.37 0 .62.22.63.54.01.33-.22.57-.56.58-.61.01-1.22 0-1.83 0-.21-.01-.4-.01-.6-.01zM5.26 6.32h.89c.34 0 .59.24.59.55 0 .32-.25.56-.6.56H4.37c-.35 0-.6-.23-.6-.56 0-.33.24-.55.6-.56.3.01.59.01.89.01z"/><path d="M11.58 13.03v.52c-.01.34-.25.59-.57.58-.32 0-.54-.25-.55-.6v-1.05c0-.35.23-.59.55-.59.32 0 .55.24.56.59.01.19.01.37.01.55zM11.01 10.97c-.41 0-.74-.34-.74-.75s.34-.74.75-.73c.41 0 .74.33.74.75 0 .41-.34.74-.75.73z"/></svg>
