<svg xmlns="http://www.w3.org/2000/svg" width="16" height="16" style="enable-background:new 0 0 16 16" xml:space="preserve"><path d="M16 10.73c0-.08 0-.15-.02-.23a.657.657 0 0 0-.72-.5c-.34.04-.59.32-.59.67v2.56c0 .5-.26.76-.75.76H2.09c-.48 0-.75-.27-.75-.75v-2.4c0-.49-.16-.75-.52-.84-.33-.06-.6.09-.82.5v3.12c.01.02.03.03.03.05.25 1.07.99 1.66 2.09 1.66h11.81c1.2 0 2.06-.86 2.07-2.06v-2.54z"/><path d="m4.29 9.92 3.17 2.54c.36.28.64.28.99 0 1.08-.86 2.16-1.72 3.24-2.59.35-.28.41-.68.16-.98-.25-.31-.65-.33-1-.05-.69.56-1.39 1.11-2.08 1.66-.04.03-.09.06-.15.1v-.25c0-2.94-.01-5.87.01-8.81 0-.41-.13-.7-.51-.86h-.33c-.38.15-.51.44-.51.85.01 2.94.01 5.87.01 8.81v.27c-.09-.07-.15-.11-.2-.15-.66-.53-1.31-1.06-1.97-1.58-.33-.26-.74-.23-.98.08-.23.3-.17.7.15.96z"/></svg>
