<svg xmlns="http://www.w3.org/2000/svg" viewBox="0 0 16 16" style="enable-background:new 0 0 16 16" xml:space="preserve">
  <path d="M8 1.1c1.2 0 2.4.3 3.4.9s1.9 1.4 2.5 2.5.9 2.2.9 3.4-.3 2.4-.9 3.4-1.4 1.9-2.5 2.5-2.2 1.1-3.4 1.1-2.4-.3-3.4-.9-1.9-1.4-2.5-2.5-1-2.3-1-3.5.3-2.4.9-3.4 1.4-1.9 2.5-2.5 2.3-1 3.5-1zm1.1 11.2v-1.7c0-.1 0-.2-.1-.2s-.1-.1-.2-.1H7.2c-.1 0-.1 0-.2.1s-.1.1-.1.2v1.7c0 .1 0 .1.1.2s.1.1.2.1h1.7c.1 0 .1 0 .2-.1v-.2zm0-3.1.2-5.5c0-.1 0-.1-.1-.2-.1 0-.1-.1-.2-.1H7c-.1 0-.2 0-.2.1-.1 0-.1.1-.1.2l.2 5.5c0 .1 0 .1.1.2.1 0 .1.1.2.1h1.7c.1 0 .2 0 .2-.1v-.2z" />
</svg>
