<?xml version="1.0" encoding="utf-8"?>
<!-- Generator: Adobe Illustrator 26.3.1, SVG Export Plug-In . SVG Version: 6.00 Build 0)  -->
<svg version="1.1" id="Layer_1" xmlns="http://www.w3.org/2000/svg" xmlns:xlink="http://www.w3.org/1999/xlink" x="0px" y="0px"
	 width="16px" height="16px" viewBox="0 0 16 16" style="enable-background:new 0 0 16 16;" xml:space="preserve">
<g>
	<path d="M0,8.2c0-0.1,0-0.2,0-0.4c0.1-0.2,0.2-0.4,0.4-0.6c0.5-0.5,0.9-1,1.5-1.5C3,4.6,4.2,3.8,5.7,3.2c0.9-0.3,1.9-0.5,2.9-0.4
		c1.1,0.1,2.1,0.5,3.1,1c1.6,0.9,3,2.1,4.1,3.5c0.3,0.4,0.3,1,0,1.4c-0.3,0.3-0.6,0.7-0.9,1c-1.1,1.1-2.3,2-3.6,2.7
		c-1,0.5-2.1,0.8-3.3,0.8c-1.3,0-2.5-0.4-3.7-1.1c-1.4-0.8-2.6-1.8-3.6-3C0.4,8.8,0.1,8.6,0,8.2z M8,11.4c1.9,0,3.4-1.5,3.5-3.4
		c0-1.9-1.5-3.4-3.4-3.4C6.1,4.6,4.6,6.1,4.6,8C4.5,9.9,6.1,11.4,8,11.4z"/>
	<path d="M8,10.5c-1.4,0-2.5-1.1-2.5-2.5c0-1.4,1.1-2.5,2.5-2.5c1.4,0,2.5,1.1,2.5,2.5C10.5,9.4,9.3,10.5,8,10.5z"/>
</g>
</svg>
