<svg version="1.1" id="Layer_1" xmlns="http://www.w3.org/2000/svg" x="0" y="0" width="16" height="16" style="enable-background:new 0 0 16 16" xml:space="preserve"><style>.st0{fill:#161815}</style><g id="XMLID_649_"><path id="XMLID_656_" class="st0" d="M8 1.4h3.2c.8 0 1.2.2 1.5.3.4.1.6.3.9.6.3.3.5.5.6.9.1.3.2.7.3 1.5v6.4c0 .8-.2 1.2-.3 1.5-.1.4-.3.6-.6.9-.3.3-.5.5-.9.6-.3.1-.7.2-1.5.3H4.8c-.8 0-1.2-.2-1.5-.3-.4-.1-.6-.3-.9-.6-.3-.3-.5-.5-.6-.9-.1-.3-.2-.7-.3-1.5V4.7c0-.8.2-1.2.3-1.5.1-.4.3-.6.6-.9.3-.3.5-.5.9-.6.3 0 .7-.2 1.5-.2.8-.1 1.1-.1 3.2-.1M8 0H4.7c-.9 0-1.4.2-1.9.4s-1 .5-1.4.9c-.5.5-.8.9-1 1.5-.2.5-.3 1.1-.4 1.9v6.6c0 .9.2 1.4.4 1.9s.5 1 .9 1.4c.4.4.9.7 1.4.9.5.2 1.1.3 1.9.4h6.6c.9 0 1.4-.2 1.9-.4s1-.5 1.4-.9c.4-.4.7-.9.9-1.4.2-.5.3-1.1.4-1.9V4.7c0-.9-.2-1.4-.4-1.9s-.5-1-.9-1.4c-.4-.4-.9-.7-1.4-.9-.5-.2-1.1-.3-1.9-.4-.8-.1-1-.1-3.2-.1"/><path id="XMLID_653_" class="st0" d="M8 3.9C5.7 3.9 3.9 5.7 3.9 8s1.8 4.1 4.1 4.1 4.1-1.8 4.1-4.1S10.3 3.9 8 3.9m0 6.8c-1.5 0-2.7-1.2-2.7-2.7 0-1.5 1.2-2.7 2.7-2.7 1.5 0 2.7 1.2 2.7 2.7 0 1.5-1.2 2.7-2.7 2.7"/><path id="XMLID_652_" class="st0" d="M13.2 3.7c0 .5-.4 1-1 1-.5 0-1-.4-1-1s.4-1 1-1c.6.1 1 .5 1 1"/></g></svg>
