<svg xmlns="http://www.w3.org/2000/svg" width="16" height="16" style="enable-background:new 0 0 16 16" xml:space="preserve"><path d="M.43 1.43c-.13.13-.13.32.02.46L.56 2H9.8l.11.11.11.11V5.4c0 2.79.01 3.21.05 3.29.06.12.13.16.3.16.1 0 .15-.02.22-.09l.09-.09V4.01h2.76l.09.08c.05.05.47.72.93 1.5.63 1.05.85 1.45.88 1.57.02.1.03.56.03 1.17v1.02H7.93c-7.11 0-7.42 0-7.54.06-.16.07-.32.25-.36.4-.04.16-.04 2.24 0 2.39.04.15.2.33.36.4.11.05.23.06 1.2.06.59 0 1.07.01 1.07.01 0 .01.02.12.03.26.11.78.63 1.39 1.4 1.66.26.09.88.08 1.17-.01.75-.24 1.32-.94 1.38-1.71l.02-.21H10v.1c0 .39.24.94.53 1.26.38.4.82.61 1.35.64.48.02.79-.06 1.2-.32.5-.31.91-1.02.92-1.58v-.1h.74c.65 0 .76-.01.87-.06.16-.07.32-.25.36-.41.02-.09.03-.93.02-2.64l-.01-2.51-.07-.2c-.04-.11-.45-.84-.93-1.64-.68-1.14-.89-1.47-1.03-1.6-.28-.27-.25-.26-1.88-.26h-1.42l-.01-.65c-.01-.63-.01-.65-.09-.8-.1-.19-.27-.36-.46-.46l-.14-.08-4.71-.01-4.71-.01-.1.1zM15.35 11v1h-1.46l-.11-.23c-.08-.17-.17-.29-.37-.49a1.98 1.98 0 0 0-.91-.55c-.27-.07-.73-.07-1 0-.55.15-1.05.56-1.29 1.08l-.09.19H6.55l-.07-.17c-.04-.09-.14-.26-.23-.37-.58-.79-1.68-1.02-2.56-.53-.29.16-.64.53-.79.83l-.12.24H.65v-2h14.7v1zm-10.15.45c.7.32.99 1.11.67 1.78a1.329 1.329 0 0 1-2.42-.03c-.12-.26-.14-.66-.04-.95.14-.41.43-.7.83-.84.27-.09.7-.08.96.04zm7.37.02c.4.19.68.58.75 1.03.03.18.02.26-.02.45-.23 1.06-1.55 1.42-2.28.62-.65-.71-.37-1.82.54-2.16.14-.05.23-.06.48-.05.28.01.35.02.53.11z"/><path d="M1.8 3.41c-.12.09-.16.25-.1.38.09.22-.04.21 2.68.2l2.44-.01.08-.08c.05-.05.09-.13.1-.21.02-.12.01-.14-.09-.24l-.11-.11H4.33c-2.41 0-2.45 0-2.53.07zM11.5 4.68c-.04.03-.1.08-.12.13-.05.1-.05 2.29 0 2.39.08.18.1.18 1.44.18.73 0 1.27-.01 1.32-.03.11-.04.21-.21.19-.33-.01-.1-1.31-2.16-1.44-2.3-.08-.08-.08-.08-.69-.09-.54 0-.63 0-.7.05zm1.43 1.3c.24.38.44.71.44.72 0 .01-.31.02-.69.02H12V5.28h.48l.45.7zM3.1 5.45c-.1.1-.11.13-.09.24.01.08.05.16.1.21l.08.08h3.62l.08-.08c.05-.05.09-.13.1-.21.02-.12.01-.14-.09-.24l-.11-.11H3.21l-.11.11zM4.43 7.44c-.13.14-.13.32.02.46l.11.11L5.69 8l1.12-.01.08-.08c.16-.15.13-.44-.06-.53-.05-.02-.44-.03-1.19-.03H4.53l-.1.09z"/></svg>
