<svg version="1.1" id="Layer_1" xmlns="http://www.w3.org/2000/svg" x="0" y="0" width="16" height="16" style="enable-background:new 0 0 16 16" xml:space="preserve"><style>.st0{fill:#161815}</style><g id="XMLID_665_"><g id="XMLID_667_"><path id="XMLID_669_" class="st0" d="M.3 5.3h3.3V16H.3z"/><path id="XMLID_668_" class="st0" d="M2 3.9c1.1 0 2-.9 2-2S3 0 2 0C.9 0 0 .9 0 2s.9 1.9 2 1.9z"/></g><path id="XMLID_666_" class="st0" d="M8.9 10.4c0-1.5.7-2.4 2-2.4 1.2 0 1.8.9 1.8 2.4V16H16V9.2C16 6.4 14.4 5 12.1 5 9.9 5 8.9 6.8 8.9 6.8V5.3H5.7V16h3.2v-5.6z"/></g></svg>
