<svg version="1.1" id="Layer_1" xmlns="http://www.w3.org/2000/svg" x="0" y="0" width="16" height="16" style="enable-background:new 0 0 16 16" xml:space="preserve"><style>.st0{fill:#010101}</style><path class="st0" d="M8 16c-.15 0-.3-.06-.41-.18-.24-.26-5.81-6.29-5.81-9.6C1.78 2.79 4.57 0 8 0s6.22 2.79 6.22 6.22c0 3.31-5.58 9.35-5.81 9.6-.11.12-.26.18-.41.18zM8 1.11c-2.82 0-5.11 2.29-5.11 5.11 0 2.2 3.37 6.45 5.11 8.4 1.73-1.95 5.11-6.2 5.11-8.4 0-2.82-2.29-5.11-5.11-5.11z"/><path class="st0" d="M8 8.75c-1.54 0-2.8-1.26-2.8-2.8 0-1.54 1.26-2.8 2.8-2.8 1.54 0 2.8 1.26 2.8 2.8 0 1.54-1.26 2.8-2.8 2.8zm0-4.49c-.93 0-1.69.76-1.69 1.69 0 .93.76 1.69 1.69 1.69.93 0 1.69-.76 1.69-1.69 0-.93-.76-1.69-1.69-1.69z"/></svg>
