<svg xmlns="http://www.w3.org/2000/svg" width="16" height="16" style="enable-background:new 0 0 16 16" xml:space="preserve"><path d="M8.5 16H7.4c-.8-.1-1.5-.2-2.2-.5-2.7-1.1-4.4-3.1-5-6-.1-.4-.2-.7-.2-1V7.4c.1-.5.2-1 .3-1.4C1.5 1.5 6.4-1.1 10.8.6c3.8 1.4 6 5.5 5 9.4-.8 3.2-2.9 5.1-6.2 5.9-.4 0-.7 0-1.1.1zm2-3.2s.1 0 .2-.1c.7-.5 1.4-1 1.9-1.6.2-.2.2-.4-.1-.6-.6-.5-1.3-.9-2.1-1.2-.3-.1-.3-.1-.6.1 0 .2-.2.4-.4.6-.1.1-.2.2-.4.1-.1-.1-.3-.1-.5-.2-1.3-.6-2.2-1.6-2.6-3 0-.1 0-.2.1-.2.2-.2.4-.3.6-.5.3-.3.3-.3.1-.7-.4-.7-.8-1.4-1.2-2-.2-.4-.4-.4-.7-.1-.6.5-1 1.1-1.5 1.7-.1.2-.1.4-.1.6.1.2.1.4.2.7.3 1 .9 1.9 1.5 2.8 1.1 1.4 2.5 2.6 4.2 3.3.4.1.9.2 1.4.3zm2.3-5.1c0-2.5-2.2-4.5-4.4-4.4v.6c2.3.2 3.5 1.5 3.8 3.8h.6zm-1.7 0c.1-1.6-1.4-2.8-2.7-2.7v.6c1.4.3 1.8.7 2.1 2.1h.6z"/></svg>
