<svg xmlns="http://www.w3.org/2000/svg" width="16" height="16" style="enable-background:new 0 0 16 16" xml:space="preserve"><path d="M11.2 16c-.3 0-.6-.1-.8-.1-1-.2-2-.7-2.9-1.2-1.4-.8-2.7-1.8-3.8-3-1.4-1.5-2.5-3.1-3.2-5C.2 6 0 5.3 0 4.6c0-.7.2-1.4.7-2 .4-.4.8-.9 1.3-1.2.7-.6 1.5-.6 2.1 0l2.1 2.1c.5.6.5 1.4 0 1.9-.3.4-.7.8-1.1 1.2l-.1.1C6 8.5 7.4 10 9.3 11l.9-.9c.2-.2.5-.5.8-.6.5-.2 1.1-.1 1.5.3.8.7 1.5 1.4 2.2 2.2.5.5.5 1.4 0 1.9l-1.5 1.5c-.4.3-.8.5-1.3.6h-.7zm.2-.9c.6 0 1-.2 1.3-.5.3-.4.7-.7 1-1.1l.1-.1c.2-.3.2-.6 0-.9l-.9-.9-1.1-1.1c-.3-.3-.6-.3-.9 0-.1 0-.1.1-.2.2l-1.1 1.1c0 .2-.3.2-.6 0l-.6-.3c-.9-.6-1.8-1.3-2.5-2.1-.7-.7-1.3-1.4-1.7-2.3-.2-.5-.2-.7.2-1.1.4-.4.8-.7 1.1-1.1.3-.3.2-.6 0-.8 0-.1-.1-.1-.1-.1-.6-.7-1.2-1.3-1.8-1.9-.4-.4-.7-.4-1.1 0L1.4 3.2c-.1.2-.3.4-.4.6-.2.5-.1 1 0 1.5.2.7.4 1.5.8 2.1.6 1.2 1.4 2.3 2.3 3.3 1.6 1.8 3.5 3.1 5.8 4 .5.3 1 .4 1.5.4zM16 7.2c-.1.3-.3.4-.5.4-.3 0-.4-.2-.5-.5C14.9 6 14.4 5 13.8 4c-.9-1.2-2-2.1-3.4-2.7-.5-.1-1.1-.3-1.6-.4-.3-.1-.4-.3-.4-.6.1-.2.3-.3.6-.3 1.3.2 2.4.7 3.5 1.5 1 .7 1.8 1.6 2.4 2.6.5.9.9 1.9 1.1 2.9v.2c0-.1 0 0 0 0zM8.8 2.9c.2 0 .5.1.8.2 1.9.7 3.1 2.1 3.5 4.1.1.3-.1.5-.3.5-.2.1-.5-.1-.5-.3-.2-.4-.3-.7-.4-1.1-.7-1.3-1.7-2.2-3.2-2.5-.3 0-.4-.2-.4-.4s.1-.4.3-.5h.2z"/></svg>
