<svg xmlns="http://www.w3.org/2000/svg" width="16" height="16" style="enable-background:new 0 0 16 16" xml:space="preserve"><path d="M.4 15.6c.2-.4.3-.8.5-1.3l.6-1.5v-.3C-.9 9.3-.4 4.8 2.6 2.1 4.3.6 6.3-.1 8.6 0c3.6.3 6.5 2.8 7.3 6.4.9 4.3-1.9 8.6-6.2 9.4-2.1.4-4 .1-5.9-1.1-.1-.1-.2-.1-.3 0-.9.3-1.9.5-2.8.8-.1.1-.2.1-.3.1zm10-3.1c.4 0 .8-.1 1.1-.4.2-.2.5-.4.7-.7.4-.4.4-1 0-1.3L11 8.9c-.5-.5-1.2-.3-1.4.3-.2.4-.6.6-1 .4-.3 0-.6-.2-.8-.3-.7-.5-1.2-1-1.5-1.8-.2-.5 0-.9.5-1.1.6-.3.8-1 .3-1.4-.4-.4-.8-.8-1.2-1.3-.4-.3-.9-.3-1.2.1-.3.2-.6.5-.8.8-.2.1-.3.4-.3.6-.1.4 0 .8.1 1.2.3 1 .8 1.8 1.5 2.6 1 1.3 2.2 2.3 3.7 3.1.4.2.9.4 1.5.4z"/></svg>
