<svg xmlns="http://www.w3.org/2000/svg" width="16" height="16" style="enable-background:new 0 0 16 16" xml:space="preserve"><path d="M6.1 9.9c1.4 1.4 3.1 2.8 3.7 2.1.9-.9 1.5-1.8 3.6-.1s.5 2.8-.4 3.7c-1 1.1-5 .1-8.8-3.8C.3 8-.7 4.1.4 3c.9-.9 2-2.5 3.7-.4 1.6 2 .8 2.6-.1 3.6-.7.6.7 2.3 2.1 3.7zm2.1-6.8s-.4-.1-.7.2c-.3.3-.3.8 0 1.2.2.2.5.2.5.2.5.1 1.3.3 2.1 1.2.9.9 1 1.7 1.1 2.2 0 0 0 .3.2.5.3.3.9.3 1.2 0 .3-.3.2-.7.2-.7-.2-1.1-.7-2.2-1.6-3.1-.8-1-1.9-1.5-3-1.7zm4.1.6c1.6 1.6 2.2 3.4 2 4.8 0 0-.1.5.2.8.3.3.9.3 1.2 0 .2-.2.3-.5.3-.5.2-1.2 0-3.8-2.5-6.2C11.1.2 8.5-.1 7.3.1c0 0-.3 0-.5.2-.3.3-.3.8 0 1.2.2.3.7.2.7.2 1.4-.2 3.2.5 4.8 2z" style="fill:#010101"/></svg>
