<svg xmlns="http://www.w3.org/2000/svg" width="16" height="16" style="enable-background:new 0 0 16 16" xml:space="preserve"><path d="M3.7 9.3c.2.1.4 0 .5-.2 0-.2.1-.6.2-.7.1-.2 0-.3-.1-.5-.5-.6-.7-1.1-.7-1.9 0-2.3 1.7-4.4 4.5-4.4 2.5 0 3.8 1.5 3.8 3.5 0 2.6-1.2 4.9-2.9 4.9-1 0-1.7-.8-1.5-1.8.4-1.2.9-2.4.9-3.3 0-.8-.4-1.4-1.2-1.4-1 0-1.8 1-1.8 2.4 0 .9.3 1.5.3 1.5s-1 4.3-1.2 5c-.4 1.5-.1 3.3 0 3.5 0 .1.1.1.2.1.1-.1 1.3-1.6 1.7-3 .1-.5.6-2.6.6-2.6.3.6 1.3 1.1 2.2 1.1 3 0 5-2.7 5-6.3 0-2.7-2.3-5.3-5.8-5.3C4 0 1.8 3.1 1.8 5.7c0 1.6.6 3 1.9 3.6z" style="fill:#161815"/></svg>
