<svg xmlns="http://www.w3.org/2000/svg" width="16" height="16" style="enable-background:new 0 0 16 16" xml:space="preserve"><path d="M8.47 16h-.94l-.1-.03a7.45 7.45 0 0 1-2.81-.73C2.16 14.03.65 12.08.13 9.39c-.06-.3-.09-.61-.13-.92v-.94l.03-.13C.09 6.57.26 5.76.6 5 1.97 1.93 4.33.25 7.69.02c1.57-.1 3.05.28 4.4 1.11 2.43 1.5 3.74 3.69 3.91 6.54a7.3 7.3 0 0 1-.75 3.73c-1.25 2.54-3.28 4.05-6.08 4.52-.24.03-.47.05-.7.08zm-.48-1.34c3.67.01 6.65-2.96 6.67-6.64.02-3.67-2.97-6.67-6.65-6.68-3.67-.01-6.65 2.96-6.67 6.64-.02 3.67 2.96 6.67 6.65 6.68z"/><path d="M6.32 7.99v2.34c0 .19.04.34.22.43.17.09.33.03.48-.07 1.06-.77 2.13-1.55 3.2-2.32.31-.22.31-.51 0-.74-1.07-.77-2.13-1.54-3.19-2.31-.15-.11-.31-.18-.49-.09-.18.1-.22.26-.22.45v2.31z"/></svg>
