<svg xmlns="http://www.w3.org/2000/svg" width="16" height="16" style="enable-background:new 0 0 16 16" xml:space="preserve"><path d="M16 6.01C15.96 6 15.92 6 15.89 6H10l2.23-2.23c-1.87-1.98-5.36-2.51-7.93-.5-2.78 2.17-3.04 6.13-.86 8.65 2.38 2.75 6.67 2.78 9.06.03.5.44 1 .87 1.5 1.32-.1.1-.19.21-.29.31a7.967 7.967 0 0 1-4.26 2.29 7.994 7.994 0 0 1-9.06-5.3 7.976 7.976 0 0 1-.4-3.14C.21 4.43 2.1 1.8 4.87.64 5.72.28 6.6.08 7.53.03c.05-.02.08-.03.11-.03h.72c.03 0 .06.01.1.01.25.03.51.05.77.09 1.68.26 3.13.99 4.36 2.17.02.02.05.05.08.07.02-.01.03-.02.04-.03L15.97.05c.01-.01.02-.03.04-.05-.02.02-.01.05-.01.07V6.01z"/></svg>
