<svg xmlns="http://www.w3.org/2000/svg" viewBox="0 0 16 16" style="enable-background:new 0 0 16 16" xml:space="preserve"><path d="M15.4 16c-.1-.1-.3-.2-.4-.3-1.3-1.3-2.6-2.6-3.9-3.8l-.1-.1c-.3.2-.5.4-.8.5-1.2.7-2.5 1-4 .9-1.4-.1-2.7-.6-3.7-1.5C1.1 10.6.3 9.2.1 7.4 0 7.3 0 7.2 0 7.1v-.9c0-.3.1-.5.1-.8.2-1 .6-1.9 1.2-2.7C2.3 1.4 3.5.6 5 .2c2.2-.5 4.2-.1 6 1.3 1.4 1.1 2.2 2.5 2.4 4.3.2 1.9-.3 3.6-1.6 5.1l-.1.1.1.1 3.9 3.9c.1.1.2.2.2.3v.2c-.1.2-.2.3-.4.4 0 .1-.1.1-.1.1zM1 6.6v.6c.1 1.2.6 2.3 1.5 3.2 1.5 1.5 3.3 2.1 5.4 1.7 1.8-.4 3.2-1.4 4-3.1.8-1.7.8-3.4-.1-5.1-.9-1.7-2.4-2.6-4.3-2.9-1.6-.1-3 .3-4.2 1.2C1.8 3.3 1.1 4.8 1 6.6z"/></svg>
