<svg xmlns="http://www.w3.org/2000/svg" viewBox="0 0 16 16" style="enable-background:new 0 0 16 16" xml:space="preserve">
  <path d="M6.3 12.3V6c0-.1 0-.2-.1-.2 0-.1-.1-.1-.2-.1h-.6c-.1 0-.2 0-.2.1 0 0-.1.1-.1.2v6.3c0 .1 0 .2.1.2.1.1.1.1.2.1H6c.1 0 .2 0 .2-.1.1-.1.1-.1.1-.2zm2.3 0V6c0-.1 0-.2-.1-.2-.1-.1-.1-.1-.2-.1h-.6c-.1 0-.2 0-.2.1 0 0-.1.1-.1.2v6.3c0 .1 0 .2.1.2.1.1.1.1.2.1h.6c.1 0 .2 0 .2-.1s.1-.1.1-.2zm2.3 0V6c0-.1 0-.2-.1-.2-.1-.1-.1-.1-.2-.1H10c-.1 0-.2 0-.2.1-.1 0-.1.1-.1.2v6.3c0 .1 0 .2.1.2.1.1.1.1.2.1h.6c.1 0 .2 0 .2-.1s.1-.1.1-.2zM6 3.4h4l-.4-1c0-.1-.1-.1-.2-.1H6.6c-.1 0-.1 0-.2.1l-.4 1zm8.3.3v.6c0 .1 0 .2-.1.2-.1.1-.1.1-.2.1h-.9V13c0 .5-.1.9-.4 1.3-.3.4-.6.5-1 .5H4.3c-.4 0-.7-.2-1-.5s-.4-.8-.4-1.3V4.6H2c-.1 0-.2 0-.2-.1-.1-.1-.1-.1-.1-.2v-.6c0-.1 0-.2.1-.2 0 0 .1-.1.2-.1h2.8l.6-1.5c.1-.2.2-.4.5-.6.2-.2.5-.2.7-.2h2.9c.2 0 .5.1.7.2.2.2.4.3.5.6l.6 1.5H14c.1 0 .2 0 .2.1.1.1.1.1.1.2z" />
</svg>
