<svg xmlns="http://www.w3.org/2000/svg" width="16" height="16" style="enable-background:new 0 0 16 16" xml:space="preserve"><path d="M8 0C3.59 0 0 3.59 0 8s3.59 8 8 8 8-3.59 8-8-3.59-8-8-8zm6.87 7.45h-3.01c-.07-2.5-.65-4.61-1.55-5.94 2.51.89 4.34 3.19 4.56 5.94zM8 14.9c-1.25 0-2.63-2.58-2.76-6.34h5.51c-.12 3.76-1.5 6.34-2.75 6.34zM5.24 7.45C5.37 3.68 6.75 1.1 8 1.1c1.25 0 2.63 2.58 2.76 6.34H5.24zm.44-5.94c-.89 1.33-1.47 3.44-1.54 5.94H1.13a6.896 6.896 0 0 1 4.55-5.94zM1.13 8.55h3.01c.07 2.5.65 4.61 1.54 5.94a6.896 6.896 0 0 1-4.55-5.94zm9.19 5.94c.89-1.33 1.47-3.45 1.55-5.94h3.01a6.922 6.922 0 0 1-4.56 5.94z" style="fill:#010101"/></svg>
