<svg xmlns="http://www.w3.org/2000/svg" viewBox="0 0 16 16" style="enable-background:new 0 0 16 16" xml:space="preserve"><path d="M8.4 16H7.2c-1.7-.2-3.2-.8-4.5-2C1.3 12.8.5 11.2.1 9.4c0-.3-.1-.6-.1-.9v-.9c.1-.5.1-1 .2-1.4.4-1.5 1.1-2.8 2.2-3.8C3.8 1 5.4.2 7.2 0c1.4-.1 2.7.1 4 .6 1.7.8 3 2 3.9 3.6.6 1 .8 2.1.9 3.3.1 1.1-.1 2.2-.5 3.3-.6 1.5-1.5 2.7-2.7 3.6-1 .7-2 1.2-3.2 1.4-.4.1-.8.1-1.2.2zM1.2 5.2c-1.4 3-.4 7.3 3.3 9.3 3.5 1.9 7.4.5 9.1-1.8h-.2v-.1c0-.2 0-.4-.2-.6 0-.1-.1-.1-.1-.2v-.3c0-.1 0-.2-.1-.3-.1-.1-.2-.3-.1-.4.1-.1.1-.2.2-.3v-.2c-.1-.2-.3-.5-.4-.7 0-.1-.1-.2 0-.2v-.5h-.3c-.1 0-.2-.1-.2-.1-.1-.1-.3-.1-.5 0-.1 0-.1.1-.2.1-.2 0-.3 0-.5.1-.1 0-.3 0-.4-.1-.2-.2-.3-.4-.5-.6l-.1-.1v-.6c0-.1.1-.2.2-.2h-.1l-.2-.2c-.1-.1.1-.2.1-.2.2-.1.4-.3.5-.4.1-.1.1-.1.1-.2v-.3c.1-.1.3-.2.5-.2h.4c.3-.2.7-.1 1-.2v.4l.9.3v-.2c.2 0 .4-.1.6.1.2.2.5.1.8.1.2-.6.2-.7.1-.8 0-.2-.1-.2-.3-.2-.2 0-.4-.1-.4-.4v-.2L14 5c0 .1-.1.2-.1.3-.1-.1-.2-.3-.2-.4-.1-.3-.4-.6-.7-.5 0 .3.3.3.5.5 0 .1-.1.1 0 .2 0 .1-.1.2-.2.2s-.2-.1-.2-.2c.1 0 .2.1.3-.1-.1-.1-.2-.1-.3-.2l-.3-.3-.1.1s-.1.1-.1 0c-.1-.1-.2 0-.3.1 0 .1-.1.1-.2.2-.1.3-.4.3-.6.3-.2 0-.3-.1-.3-.2-.2 0-.2 0-.2-.1 0-.2 0-.3.2-.3h.6v-.2c-.1 0-.1 0-.2-.1v-.1c0-.1.1-.2.2-.2.2 0 .3-.1.3-.2.1-.2.2-.2.4-.2h.3c0-.1 0-.2-.1-.3-.1 0-.2.1-.3.1 0-.1 0-.1-.1-.2l-.1-.1c-.1-.1-.2-.2-.1-.3.1-.1.2-.1.3-.2.1-.1.2-.1.2-.2C11.4 1.3 9.4.4 7.1.6c-1 .2-2.3.7-3.4 1.5.3 0 .6 0 .9.3H5c0-.3-.3-.1-.4-.2.1-.2.1-.2-.1-.2h-.3l.1-.1.2-.2c.1-.1.5 0 .6.1.2.2.4.2.6 0 .1-.1.1-.1.2 0-.1.3-.3.3-.6.3v.3h.4c0-.1.1-.1.2-.1s.2 0 .2-.2H6c0-.2.3-.3.6-.2 0 .1-.3.1-.1.3 0 .1.2.1.3.1v-.4c.1 0 .2-.1.3-.1.3-.1.6 0 .8.2.2 0 .3.1.3.3.1 0 .1 0 .2.1 0 .2-.1.2-.3.2-.1 0-.2 0-.2.1v.1c-.3-.1-.5-.1-.7-.2l.6-.3c-.2 0-.3-.1-.3-.1-.2 0-.3 0-.5.1-.1 0-.2.2-.4.2 0 0 0 .1.1.1-.1.1-.2.1-.4.2 0-.1 0-.2-.1-.2-.2 0-.5.2-.7.3-.2.1-.2.4 0 .5.1.1.3.1.5.2V4c0-.1.1-.2.1-.2.1-.1.1-.2.2-.2.3-.1.3-.1.3-.5V3l.2-.2c.2 0 .3.1.5.1v.4l.6-.3v.1c0 .2 0 .3.2.4l.1.1c0 .1 0 .2-.2.3 0 0-.1 0-.1.1 0 0 0 .1.1.1 0 0 .1 0 .1.1.1 0 .1.1.1.3-.1-.1-.2-.2-.4-.2-.1 0-.1-.1 0-.2V4h-.1c-.1.1-.3.1-.4 0 0 0-.1-.1-.2-.1L7 4l.1.1h.1c0 .1-.1.1-.1.1-.1 0-.2 0-.3.1-.1.1-.2.3-.4.4-.3.1-.5.3-.7.5v.1c0 .2-.1.2-.2.3-.1 0-.1.1-.2.1-.2.2-.4.3-.3.6v.2c-.2-.1-.3-.2-.3-.5H3.8c-.3.2-.6.4-.6.8 0 .2 0 .3.1.4.1.1.4 0 .4 0 .1-.1.3-.2.5-.3 0 .1 0 .1-.1.5.1 0 .3.1.4.1V8c0 .2.1.2.2.2.3.1.5 0 .6-.2.1-.1.1-.2.3-.1.1 0 .3 0 .3.1.1.2.2.2.4.2.1 0 .1 0 .2-.1.2 0 .3.1.4.3.1 0 .2.1.3.1.3 0 .3 0 .4.3v.3c0 .1 0 .1.1.2.3.1.6.2.9.2.1 0 .1 0 .2.1.2 0 .3.1.6.2-.1.1-.1.2-.2.3-.2.2-.3.5-.3.7v.2c0 .2-.1.3-.2.4-.1 0-.2.1-.4.1-.1 0-.2 0-.2.1-.1.1 0 .3 0 .4 0 .1 0 .3-.1.4-.1.1-.3.3-.4.5-.1.3-.4.3-.6.4-.1 0-.1.1-.2.1.1 0 .1.1.2.2-.1.1-.1.2-.2.3.1 0 .2.1.3.1 0 .1 0 .2-.1.2 0 .1 0 .2.1.3.1 0 .1.1.2.1v.2c-.1.1-.4 0-.5-.1-.2-.2-.4-.4-.6-.7-.1-.2-.1-.3-.1-.5.1-.2 0-.4-.2-.6 0 0-.1-.1-.1-.2s0-.3.1-.5c-.2 0-.2-.1-.2-.2v-1.2c-.2-.1-.4-.2-.5-.3l-.1-.1c0-.1-.1-.2-.1-.3-.1 0-.3-.1-.4-.3V9.2c0-.1 0-.2.1-.2.3-.1.3-.3.3-.5 0-.1-.1-.2-.2-.2-.3 0-.5-.1-.7-.3L4 7.9c0-.1-.1-.1-.2-.2-.1 0-.2-.1-.3-.1v-.2c-.1 0-.2.1-.3.1-.3-.1-.6 0-.7-.4 0-.1-.1-.2 0-.3v-.1c-.4-.3-.6-.5-.6-.9h-.1c0 .3.1.5.2.7.1.1.1.2 0 .3-.1 0-.2 0-.2-.1-.1-.2-.3-.4-.2-.7v-.2c0-.1 0-.2-.1-.2-.2 0-.2-.1-.2-.3 0 0-.1 0-.1-.1zM13.4 3s-.1 0 0 0c0 .2-.1.4-.3.4l-.1.1.1.1h.3c.1 0 .2-.1.2-.2 0 0 0-.1-.1-.2 0 0-.1-.1-.1-.2zm-8 1.4c0-.1 0-.2-.1-.2-.2 0-.4 0-.4.2.1-.1.3-.1.5 0zm-.2 0c-.2 0-.4 0-.4.2 0 .1 0 .2.1.2.1-.1.2-.2.3-.4zm-1.5-2v.1c.3 0 .5 0 .4-.2-.1.1-.3.1-.4.1zm.7 1.2c.1.1.1.2.1.3.2-.1.2-.1.2-.3h-.3zm1.1 1.1c-.2 0-.3.1-.3.2.3.1.3 0 .3-.2zM3.7 2.9c.1 0 .3.1.4 0 0 0 0-.1.1-.2-.2.1-.3.1-.5.2zm2 1.6c0 .2 0 .3.3.2 0-.2-.2-.1-.3-.2zm-.4.1c.2 0 .3-.1.2-.2h-.2v.2zm9.4.4c-.1-.1-.1-.2-.2-.3V5h.2z"/></svg>
